# xmcd CD database file
#
# Track frame offsets:
#	180
#	153883
#	290253
#
# Disc length: 4197 seconds
#
# Revision: 1
# Processed by: cddbd v1.5.1PL0 Copyright (c) Steve Scherf et al.
# Submitted via: CDex 1.51
#
DISCID=1c106303
DTITLE=Various Artist - A Class of it´s own Megamixes
DYEAR=2005
DGENRE=Mix
TTITLE0=Mr. President Megamix 
TTITLE1=Caught in the Act Megamix
TTITLE2=Mr. President - I Love to Love 
EXTD=YEAR: 2005
EXTT0=
EXTT1=
EXTT2=
PLAYORDER=
